<?xml version="1.0" encoding="UTF-8"?>
<svg xmlns="http://www.w3.org/2000/svg" width="512" height="512" viewBox="0 0 512 512" fill="none">
  <g clip-path="url(#clip0_2301_12)">
    <mask id="mask0_2301_12" style="mask-type:luminance" maskUnits="userSpaceOnUse" x="0" y="0" width="512" height="512">
      <path d="M512 0H0V512H512V0Z" fill="white"></path>
    </mask>
    <g mask="url(#mask0_2301_12)">
      <path d="M253.564 53.3333C253.564 23.872 277.436 0 306.897 0C336.359 0 360.231 23.872 360.231 53.3333C360.231 82.7947 336.359 106.667 306.897 106.667C277.436 106.667 253.564 82.7947 253.564 53.3333ZM469.329 426.667C445.756 426.667 426.663 445.76 426.663 469.333C426.663 492.907 445.756 512 469.329 512C492.903 512 511.996 492.907 511.996 469.333C511.996 445.76 492.903 426.667 469.329 426.667ZM355.089 364.245L401.148 490.304L341.052 512.256L301.393 403.733L201.126 326.976C171.473 307.307 159.782 269.504 173.329 236.437C174.033 234.453 209.638 163.499 210.577 161.408L118.908 118.784L53.6917 43.0293L102.204 1.28L158.417 66.6027L480.401 216.32L453.415 274.368L306.449 206.037L263.996 294.549L355.068 364.267L355.089 364.245ZM136.422 314.581L102.972 339.883L38.2464 291.115L-0.260254 342.229L103.078 420.075L178.236 363.221C159.846 350.72 145.318 333.931 136.422 314.581Z" fill="#00AD64"></path>
    </g>
  </g>
  <defs>
    <clipPath id="clip0_2301_12">
      <rect width="512" height="512" fill="white"></rect>
    </clipPath>
  </defs>
</svg>
